<?xml version="1.0" encoding="UTF-8" standalone="no"?>
<!-- Created with Inkscape (http://www.inkscape.org/) -->

<svg
   xmlns:dc="http://purl.org/dc/elements/1.1/"
   xmlns:cc="http://creativecommons.org/ns#"
   xmlns:rdf="http://www.w3.org/1999/02/22-rdf-syntax-ns#"
   xmlns:svg="http://www.w3.org/2000/svg"
   xmlns="http://www.w3.org/2000/svg"
   xmlns:sodipodi="http://sodipodi.sourceforge.net/DTD/sodipodi-0.dtd"
   xmlns:inkscape="http://www.inkscape.org/namespaces/inkscape"
   version="1.1"
   id="svg6404"
   xml:space="preserve"
   width="725.68964"
   height="725.68835"
   viewBox="0 0 725.68967 725.68835"
   sodipodi:docname="erlite-icon.svg"
   inkscape:version="0.92.4 (5da689c313, 2019-01-14)"><metadata
     id="metadata6410"><rdf:RDF><cc:Work
         rdf:about=""><dc:format>image/svg+xml</dc:format><dc:type
           rdf:resource="http://purl.org/dc/dcmitype/StillImage" /><dc:title></dc:title></cc:Work></rdf:RDF></metadata><defs
     id="defs6408" /><sodipodi:namedview
     pagecolor="#ffffff"
     bordercolor="#666666"
     borderopacity="1"
     objecttolerance="10"
     gridtolerance="10"
     guidetolerance="10"
     inkscape:pageopacity="0"
     inkscape:pageshadow="2"
     inkscape:window-width="1366"
     inkscape:window-height="745"
     id="namedview6406"
     showgrid="false"
     inkscape:zoom="0.36157878"
     inkscape:cx="390.60224"
     inkscape:cy="298.95608"
     inkscape:window-x="-8"
     inkscape:window-y="-8"
     inkscape:window-maximized="1"
     inkscape:current-layer="g6412"
     fit-margin-top="0"
     fit-margin-left="0"
     fit-margin-right="0"
     fit-margin-bottom="0" /><g
     id="g6412"
     inkscape:groupmode="layer"
     inkscape:label="erlite"
     transform="matrix(1.3333333,0,0,1.3333333,-198.41417,-34.006804)"><g
       id="g6967"
       transform="matrix(0.90853432,0,0,0.90853432,38.501951,27.223683)"><path
         d="m 651.266,152.758 c 80.011,127.203 41.761,295.183 -85.442,375.199 -127.203,80.016 -295.183,41.762 -375.199,-85.441 -80.016,-127.2 -41.762,-295.184 85.441,-375.2 127.204,-80.011 295.184,-41.757 375.2,85.442 z"
         style="fill:#002e4a;fill-opacity:1;fill-rule:evenodd;stroke:none"
         id="path6416"
         inkscape:connector-curvature="0" /><path
         d="m 470.664,158.879 c -4.621,-0.149 -9.336,1.039 -13.566,3.699 L 296.449,263.633 c -11.273,7.094 -14.644,21.879 -7.551,33.152 7.09,11.27 21.875,14.641 33.149,7.547 L 482.699,203.277 c 11.274,-7.089 14.641,-21.875 7.551,-33.148 -4.434,-7.047 -11.879,-11.004 -19.586,-11.25 z m 31.504,66.883 c -4.625,-0.149 -9.348,1.039 -13.574,3.695 l -68.254,42.938 c -11.274,7.093 -14.641,21.878 -7.551,33.152 7.09,11.269 21.875,14.641 33.149,7.547 l 68.261,-42.934 c 11.274,-7.094 14.637,-21.879 7.543,-33.152 -4.429,-7.043 -11.867,-11 -19.574,-11.246 z m 46.652,57.359 c -4.625,-0.148 -9.347,1.039 -13.574,3.695 L 374.594,387.875 c -11.274,7.09 -14.633,21.875 -7.543,33.148 7.09,11.274 21.867,14.633 33.14,7.543 L 560.844,327.512 c 11.273,-7.094 14.64,-21.871 7.551,-33.145 -4.434,-7.043 -11.868,-11 -19.575,-11.246 z m -164.789,16.957 c -4.621,-0.148 -9.343,1.039 -13.574,3.699 l -68.262,42.938 c -11.273,7.09 -14.632,21.875 -7.539,33.148 7.09,11.274 21.867,14.641 33.141,7.551 l 68.262,-42.937 c 11.273,-7.09 14.64,-21.875 7.55,-33.149 -4.433,-7.047 -11.871,-11.004 -19.578,-11.25 z"
         style="fill:#128bd4;fill-opacity:1;fill-rule:evenodd;stroke:none"
         id="path6418"
         inkscape:connector-curvature="0" /></g></g></svg>